<svg width="198" height="41" viewBox="0 0 198 41" fill="none" xmlns="http://www.w3.org/2000/svg">
<rect x="5.5" y="1" width="187" height="39" fill="url(#paint0_linear_1_132)" fill-opacity="0.2" stroke="black"/>
<path d="M6 6.89941V34.0996L10 40.5H0L4 34.0996V6.89941L0 0.5H10L6 6.89941Z" fill="#8963F4"/>
<path d="M194 6.89941V34.0996L198 40.5H188L192 34.0996V6.89941L188 0.5H198L194 6.89941Z" fill="#8963F4"/>
<path d="M31.8653 26.716C30.9173 26.716 30.0833 26.494 29.3633 26.05C28.6433 25.606 28.0793 25.006 27.6713 24.25C27.2633 23.482 27.0593 22.618 27.0593 21.658C27.0593 20.698 27.2633 19.84 27.6713 19.084C28.0793 18.328 28.6433 17.734 29.3633 17.302C30.0833 16.858 30.9173 16.636 31.8653 16.636C32.4653 16.636 33.0293 16.744 33.5573 16.96C34.0853 17.176 34.5533 17.47 34.9613 17.842C35.3693 18.202 35.6753 18.622 35.8793 19.102L34.6553 19.732C34.4153 19.216 34.0493 18.796 33.5573 18.472C33.0653 18.148 32.5013 17.986 31.8653 17.986C31.2293 17.986 30.6533 18.148 30.1373 18.472C29.6333 18.784 29.2313 19.222 28.9313 19.786C28.6433 20.338 28.4993 20.968 28.4993 21.676C28.4993 22.372 28.6433 23.002 28.9313 23.566C29.2313 24.118 29.6333 24.556 30.1373 24.88C30.6533 25.204 31.2293 25.366 31.8653 25.366C32.5013 25.366 33.0593 25.204 33.5393 24.88C34.0313 24.556 34.4033 24.124 34.6553 23.584L35.8793 24.25C35.6753 24.718 35.3693 25.138 34.9613 25.51C34.5533 25.882 34.0853 26.176 33.5573 26.392C33.0293 26.608 32.4653 26.716 31.8653 26.716ZM38.2483 26.5V16.852H39.5983V18.436L39.4183 18.202C39.6463 17.746 39.9883 17.386 40.4443 17.122C40.9123 16.858 41.4763 16.726 42.1363 16.726H42.7483V18.076H41.9023C41.2063 18.076 40.6483 18.292 40.2283 18.724C39.8083 19.156 39.5983 19.768 39.5983 20.56V26.5H38.2483ZM48.7223 26.716C47.8223 26.716 47.0063 26.5 46.2743 26.068C45.5543 25.624 44.9843 25.018 44.5643 24.25C44.1443 23.482 43.9343 22.612 43.9343 21.64C43.9343 20.668 44.1383 19.81 44.5463 19.066C44.9543 18.31 45.5063 17.716 46.2023 17.284C46.9103 16.852 47.7023 16.636 48.5783 16.636C49.2743 16.636 49.8923 16.768 50.4323 17.032C50.9843 17.284 51.4523 17.632 51.8363 18.076C52.2203 18.508 52.5143 19 52.7183 19.552C52.9223 20.092 53.0243 20.65 53.0243 21.226C53.0243 21.346 53.0183 21.484 53.0063 21.64C52.9943 21.784 52.9763 21.934 52.9523 22.09H44.7983V20.83H52.1783L51.5303 21.37C51.6383 20.71 51.5603 20.122 51.2963 19.606C51.0443 19.078 50.6783 18.664 50.1983 18.364C49.7183 18.052 49.1783 17.896 48.5783 17.896C47.9783 17.896 47.4203 18.052 46.9043 18.364C46.4003 18.676 46.0043 19.114 45.7163 19.678C45.4283 20.23 45.3143 20.89 45.3743 21.658C45.3143 22.426 45.4343 23.098 45.7343 23.674C46.0463 24.238 46.4663 24.676 46.9943 24.988C47.5343 25.3 48.1103 25.456 48.7223 25.456C49.4303 25.456 50.0243 25.288 50.5043 24.952C50.9843 24.616 51.3743 24.196 51.6743 23.692L52.8263 24.304C52.6343 24.736 52.3403 25.138 51.9443 25.51C51.5483 25.87 51.0743 26.164 50.5223 26.392C49.9823 26.608 49.3823 26.716 48.7223 26.716ZM58.0188 26.716C57.4068 26.716 56.8608 26.602 56.3808 26.374C55.9008 26.134 55.5228 25.81 55.2468 25.402C54.9708 24.994 54.8328 24.526 54.8328 23.998C54.8328 23.494 54.9408 23.038 55.1568 22.63C55.3728 22.21 55.7088 21.856 56.1648 21.568C56.6208 21.28 57.2028 21.076 57.9108 20.956L61.6908 20.326V21.55L58.2348 22.126C57.5388 22.246 57.0348 22.468 56.7228 22.792C56.4228 23.116 56.2728 23.5 56.2728 23.944C56.2728 24.376 56.4408 24.742 56.7768 25.042C57.1248 25.342 57.5688 25.492 58.1088 25.492C58.7688 25.492 59.3448 25.354 59.8368 25.078C60.3288 24.79 60.7128 24.406 60.9888 23.926C61.2648 23.446 61.4028 22.912 61.4028 22.324V19.876C61.4028 19.3 61.1928 18.832 60.7728 18.472C60.3528 18.112 59.8068 17.932 59.1348 17.932C58.5468 17.932 58.0308 18.082 57.5868 18.382C57.1428 18.67 56.8128 19.048 56.5968 19.516L55.3728 18.85C55.5528 18.442 55.8348 18.07 56.2188 17.734C56.6148 17.398 57.0648 17.134 57.5688 16.942C58.0728 16.738 58.5948 16.636 59.1348 16.636C59.8428 16.636 60.4668 16.774 61.0068 17.05C61.5588 17.326 61.9848 17.71 62.2848 18.202C62.5968 18.682 62.7528 19.24 62.7528 19.876V26.5H61.4028V24.574L61.6008 24.772C61.4328 25.132 61.1688 25.462 60.8088 25.762C60.4608 26.05 60.0468 26.284 59.5668 26.464C59.0988 26.632 58.5828 26.716 58.0188 26.716ZM69.0438 26.608C68.1798 26.608 67.5138 26.356 67.0458 25.852C66.5778 25.348 66.3438 24.628 66.3438 23.692V18.202H64.5618V16.852H65.0118C65.4198 16.852 65.7438 16.72 65.9838 16.456C66.2238 16.18 66.3438 15.838 66.3438 15.43V14.62H67.6938V16.852H69.8178V18.202H67.6938V23.692C67.6938 24.016 67.7418 24.304 67.8378 24.556C67.9338 24.796 68.0958 24.988 68.3238 25.132C68.5638 25.276 68.8818 25.348 69.2778 25.348C69.3738 25.348 69.4878 25.342 69.6198 25.33C69.7518 25.318 69.8658 25.306 69.9618 25.294V26.5C69.8178 26.536 69.6558 26.56 69.4758 26.572C69.2958 26.596 69.1518 26.608 69.0438 26.608ZM76.3727 26.716C75.4727 26.716 74.6567 26.5 73.9247 26.068C73.2047 25.624 72.6347 25.018 72.2147 24.25C71.7947 23.482 71.5847 22.612 71.5847 21.64C71.5847 20.668 71.7887 19.81 72.1967 19.066C72.6047 18.31 73.1567 17.716 73.8527 17.284C74.5607 16.852 75.3527 16.636 76.2287 16.636C76.9247 16.636 77.5427 16.768 78.0827 17.032C78.6347 17.284 79.1027 17.632 79.4867 18.076C79.8707 18.508 80.1647 19 80.3687 19.552C80.5727 20.092 80.6747 20.65 80.6747 21.226C80.6747 21.346 80.6687 21.484 80.6567 21.64C80.6447 21.784 80.6267 21.934 80.6027 22.09H72.4487V20.83H79.8287L79.1807 21.37C79.2887 20.71 79.2107 20.122 78.9467 19.606C78.6947 19.078 78.3287 18.664 77.8487 18.364C77.3687 18.052 76.8287 17.896 76.2287 17.896C75.6287 17.896 75.0707 18.052 74.5547 18.364C74.0507 18.676 73.6547 19.114 73.3667 19.678C73.0787 20.23 72.9647 20.89 73.0247 21.658C72.9647 22.426 73.0847 23.098 73.3847 23.674C73.6967 24.238 74.1167 24.676 74.6447 24.988C75.1847 25.3 75.7607 25.456 76.3727 25.456C77.0807 25.456 77.6747 25.288 78.1547 24.952C78.6347 24.616 79.0247 24.196 79.3247 23.692L80.4767 24.304C80.2847 24.736 79.9907 25.138 79.5947 25.51C79.1987 25.87 78.7247 26.164 78.1727 26.392C77.6327 26.608 77.0327 26.716 76.3727 26.716ZM87.4109 26.716C86.5109 26.716 85.7009 26.5 84.9809 26.068C84.2609 25.624 83.6909 25.024 83.2709 24.268C82.8629 23.5 82.6589 22.636 82.6589 21.676C82.6589 20.704 82.8629 19.84 83.2709 19.084C83.6909 18.328 84.2549 17.734 84.9629 17.302C85.6829 16.858 86.4989 16.636 87.4109 16.636C88.2389 16.636 88.9769 16.816 89.6249 17.176C90.2729 17.536 90.7829 18.022 91.1549 18.634L90.9389 19.012V12.874H92.2889V26.5H90.9389V24.34L91.1549 24.538C90.8189 25.234 90.3149 25.774 89.6429 26.158C88.9829 26.53 88.2389 26.716 87.4109 26.716ZM87.4829 25.366C88.1309 25.366 88.7129 25.204 89.2289 24.88C89.7569 24.556 90.1709 24.118 90.4709 23.566C90.7829 23.002 90.9389 22.372 90.9389 21.676C90.9389 20.98 90.7829 20.356 90.4709 19.804C90.1709 19.24 89.7569 18.796 89.2289 18.472C88.7129 18.148 88.1309 17.986 87.4829 17.986C86.8469 17.986 86.2709 18.148 85.7549 18.472C85.2389 18.796 84.8309 19.234 84.5309 19.786C84.2429 20.338 84.0989 20.968 84.0989 21.676C84.0989 22.372 84.2429 23.002 84.5309 23.566C84.8309 24.118 85.2329 24.556 85.7369 24.88C86.2529 25.204 86.8349 25.366 87.4829 25.366ZM98.1194 30.1V16.852H99.4694V19.012L99.2534 18.634C99.6374 18.022 100.147 17.536 100.783 17.176C101.431 16.816 102.169 16.636 102.997 16.636C103.909 16.636 104.719 16.858 105.427 17.302C106.147 17.734 106.711 18.328 107.119 19.084C107.539 19.84 107.749 20.704 107.749 21.676C107.749 22.636 107.539 23.5 107.119 24.268C106.711 25.024 106.147 25.624 105.427 26.068C104.719 26.5 103.909 26.716 102.997 26.716C102.169 26.716 101.419 26.53 100.747 26.158C100.087 25.774 99.5894 25.234 99.2534 24.538L99.4694 24.34V30.1H98.1194ZM102.925 25.366C103.573 25.366 104.149 25.204 104.653 24.88C105.169 24.556 105.571 24.118 105.859 23.566C106.159 23.002 106.309 22.372 106.309 21.676C106.309 20.968 106.159 20.338 105.859 19.786C105.571 19.234 105.169 18.796 104.653 18.472C104.149 18.148 103.573 17.986 102.925 17.986C102.277 17.986 101.689 18.148 101.161 18.472C100.645 18.796 100.231 19.24 99.9194 19.804C99.6194 20.356 99.4694 20.98 99.4694 21.676C99.4694 22.372 99.6194 23.002 99.9194 23.566C100.231 24.118 100.645 24.556 101.161 24.88C101.689 25.204 102.277 25.366 102.925 25.366ZM110.125 26.5V16.852H111.475V18.436L111.295 18.202C111.523 17.746 111.865 17.386 112.321 17.122C112.789 16.858 113.353 16.726 114.013 16.726H114.625V18.076H113.779C113.083 18.076 112.525 18.292 112.105 18.724C111.685 19.156 111.475 19.768 111.475 20.56V26.5H110.125ZM120.725 26.716C119.813 26.716 118.985 26.5 118.241 26.068C117.497 25.624 116.903 25.024 116.459 24.268C116.027 23.5 115.811 22.63 115.811 21.658C115.811 20.698 116.027 19.84 116.459 19.084C116.891 18.328 117.473 17.734 118.205 17.302C118.949 16.858 119.789 16.636 120.725 16.636C121.661 16.636 122.495 16.852 123.227 17.284C123.971 17.716 124.553 18.31 124.973 19.066C125.405 19.822 125.621 20.686 125.621 21.658C125.621 22.642 125.399 23.518 124.955 24.286C124.511 25.042 123.917 25.636 123.173 26.068C122.441 26.5 121.625 26.716 120.725 26.716ZM120.725 25.366C121.373 25.366 121.955 25.204 122.471 24.88C122.999 24.556 123.413 24.112 123.713 23.548C124.025 22.984 124.181 22.354 124.181 21.658C124.181 20.962 124.025 20.338 123.713 19.786C123.413 19.234 122.999 18.796 122.471 18.472C121.955 18.148 121.373 17.986 120.725 17.986C120.077 17.986 119.489 18.148 118.961 18.472C118.445 18.796 118.031 19.234 117.719 19.786C117.407 20.338 117.251 20.962 117.251 21.658C117.251 22.354 117.407 22.984 117.719 23.548C118.031 24.112 118.445 24.556 118.961 24.88C119.489 25.204 120.077 25.366 120.725 25.366ZM128.002 26.5V16.852H129.352V18.688L129.136 18.418C129.4 17.854 129.79 17.416 130.306 17.104C130.834 16.792 131.41 16.636 132.034 16.636C132.778 16.636 133.45 16.846 134.05 17.266C134.65 17.686 135.076 18.232 135.328 18.904L134.95 18.922C135.19 18.178 135.604 17.614 136.192 17.23C136.792 16.834 137.452 16.636 138.172 16.636C138.82 16.636 139.414 16.792 139.954 17.104C140.506 17.416 140.944 17.848 141.268 18.4C141.604 18.94 141.772 19.552 141.772 20.236V26.5H140.422V20.758C140.422 20.17 140.314 19.672 140.098 19.264C139.894 18.856 139.612 18.544 139.252 18.328C138.892 18.1 138.478 17.986 138.01 17.986C137.554 17.986 137.14 18.1 136.768 18.328C136.396 18.544 136.102 18.862 135.886 19.282C135.67 19.69 135.562 20.182 135.562 20.758V26.5H134.212V20.758C134.212 20.17 134.104 19.672 133.888 19.264C133.684 18.856 133.402 18.544 133.042 18.328C132.682 18.1 132.268 17.986 131.8 17.986C131.332 17.986 130.912 18.1 130.54 18.328C130.18 18.544 129.892 18.862 129.676 19.282C129.46 19.69 129.352 20.182 129.352 20.758V26.5H128.002ZM144.35 30.1V16.852H145.7V19.012L145.484 18.634C145.868 18.022 146.378 17.536 147.014 17.176C147.662 16.816 148.4 16.636 149.228 16.636C150.14 16.636 150.95 16.858 151.658 17.302C152.378 17.734 152.942 18.328 153.35 19.084C153.77 19.84 153.98 20.704 153.98 21.676C153.98 22.636 153.77 23.5 153.35 24.268C152.942 25.024 152.378 25.624 151.658 26.068C150.95 26.5 150.14 26.716 149.228 26.716C148.4 26.716 147.65 26.53 146.978 26.158C146.318 25.774 145.82 25.234 145.484 24.538L145.7 24.34V30.1H144.35ZM149.156 25.366C149.804 25.366 150.38 25.204 150.884 24.88C151.4 24.556 151.802 24.118 152.09 23.566C152.39 23.002 152.54 22.372 152.54 21.676C152.54 20.968 152.39 20.338 152.09 19.786C151.802 19.234 151.4 18.796 150.884 18.472C150.38 18.148 149.804 17.986 149.156 17.986C148.508 17.986 147.92 18.148 147.392 18.472C146.876 18.796 146.462 19.24 146.15 19.804C145.85 20.356 145.7 20.98 145.7 21.676C145.7 22.372 145.85 23.002 146.15 23.566C146.462 24.118 146.876 24.556 147.392 24.88C147.92 25.204 148.508 25.366 149.156 25.366ZM159.87 26.608C159.006 26.608 158.34 26.356 157.872 25.852C157.404 25.348 157.17 24.628 157.17 23.692V18.202H155.388V16.852H155.838C156.246 16.852 156.57 16.72 156.81 16.456C157.05 16.18 157.17 15.838 157.17 15.43V14.62H158.52V16.852H160.644V18.202H158.52V23.692C158.52 24.016 158.568 24.304 158.664 24.556C158.76 24.796 158.922 24.988 159.15 25.132C159.39 25.276 159.708 25.348 160.104 25.348C160.2 25.348 160.314 25.342 160.446 25.33C160.578 25.318 160.692 25.306 160.788 25.294V26.5C160.644 26.536 160.482 26.56 160.302 26.572C160.122 26.596 159.978 26.608 159.87 26.608ZM166.506 26.716C165.582 26.716 164.772 26.482 164.076 26.014C163.38 25.546 162.876 24.91 162.564 24.106L163.698 23.566C163.974 24.154 164.358 24.622 164.85 24.97C165.354 25.318 165.906 25.492 166.506 25.492C167.082 25.492 167.568 25.354 167.964 25.078C168.36 24.79 168.558 24.418 168.558 23.962C168.558 23.626 168.462 23.362 168.27 23.17C168.078 22.966 167.856 22.81 167.604 22.702C167.352 22.594 167.13 22.516 166.938 22.468L165.552 22.072C164.664 21.82 164.022 21.466 163.626 21.01C163.23 20.554 163.032 20.026 163.032 19.426C163.032 18.862 163.176 18.37 163.464 17.95C163.752 17.53 164.142 17.206 164.634 16.978C165.126 16.75 165.672 16.636 166.272 16.636C167.088 16.636 167.826 16.852 168.486 17.284C169.158 17.704 169.632 18.292 169.908 19.048L168.756 19.588C168.516 19.048 168.168 18.628 167.712 18.328C167.268 18.016 166.77 17.86 166.218 17.86C165.678 17.86 165.246 17.998 164.922 18.274C164.598 18.55 164.436 18.898 164.436 19.318C164.436 19.642 164.52 19.9 164.688 20.092C164.856 20.284 165.048 20.428 165.264 20.524C165.492 20.62 165.69 20.692 165.858 20.74L167.46 21.208C168.24 21.436 168.846 21.79 169.278 22.27C169.722 22.75 169.944 23.314 169.944 23.962C169.944 24.49 169.794 24.964 169.494 25.384C169.206 25.804 168.804 26.134 168.288 26.374C167.772 26.602 167.178 26.716 166.506 26.716Z" fill="#B2A1FD"/>
<defs>
<linearGradient id="paint0_linear_1_132" x1="5" y1="20.5" x2="193" y2="20.5" gradientUnits="userSpaceOnUse">
<stop stop-color="#B294FF" stop-opacity="0.5"/>
<stop offset="1" stop-color="#4F2BAC"/>
</linearGradient>
</defs>
</svg>
