<svg width="29" height="22" viewBox="0 0 29 22" fill="none" xmlns="http://www.w3.org/2000/svg">
<path d="M6.5 3L6.59435 3.25497C7.56306 5.87288 9.62712 7.93694 12.245 8.90565L12.5 9L12.245 9.09435C9.62712 10.0631 7.56306 12.1271 6.59435 14.745L6.5 15L6.40565 14.745C5.43694 12.1271 3.37288 10.0631 0.754973 9.09435L0.5 9L0.754973 8.90565C3.37288 7.93694 5.43694 5.87288 6.40565 3.25497L6.5 3Z" fill="#FFB367"/>
<path d="M6.5 4.30273C7.4886 6.35503 9.14409 8.01123 11.1963 9C9.14436 9.98864 7.48864 11.6444 6.5 13.6963C5.51123 11.6441 3.85503 9.9886 1.80273 9C3.85529 8.01127 5.51128 6.35529 6.5 4.30273Z" stroke="white" stroke-opacity="0.05"/>
<mask id="path-3-outside-1_1_397" maskUnits="userSpaceOnUse" x="9.93103" y="0.148865" width="19" height="22" fill="black">
<rect fill="white" x="9.93103" y="0.148865" width="19" height="22"/>
<path d="M20.8783 1.14886C20.8783 1.1557 20.8773 1.16254 20.8773 1.16937C24.7255 1.43906 27.7639 4.64423 27.764 8.56097C27.7639 12.6545 24.4454 15.9729 20.3519 15.9731H17.4525C16.6651 15.9731 16.026 16.6115 16.0258 17.3989V20.851H11.0531V17.3989C11.0534 13.8648 13.9184 10.9995 17.4525 10.9995H20.3519C21.6987 10.9993 22.7913 9.90774 22.7914 8.56097C22.7912 7.21427 21.6986 6.12168 20.3519 6.12152L15.9047 6.1225C13.1579 6.1225 10.931 3.89559 10.931 1.14886H20.8783Z"/>
</mask>
<path d="M20.8783 1.14886C20.8783 1.1557 20.8773 1.16254 20.8773 1.16937C24.7255 1.43906 27.7639 4.64423 27.764 8.56097C27.7639 12.6545 24.4454 15.9729 20.3519 15.9731H17.4525C16.6651 15.9731 16.026 16.6115 16.0258 17.3989V20.851H11.0531V17.3989C11.0534 13.8648 13.9184 10.9995 17.4525 10.9995H20.3519C21.6987 10.9993 22.7913 9.90774 22.7914 8.56097C22.7912 7.21427 21.6986 6.12168 20.3519 6.12152L15.9047 6.1225C13.1579 6.1225 10.931 3.89559 10.931 1.14886H20.8783Z" fill="#FAF9FF"/>
<path d="M20.8783 1.14886H21.8783V0.148865H20.8783V1.14886ZM20.8773 1.16937L19.8773 1.16534L19.8735 2.10148L20.8074 2.16693L20.8773 1.16937ZM27.764 8.56097L28.764 8.561L28.764 8.56093L27.764 8.56097ZM20.3519 15.9731L20.3519 16.9731L20.352 16.9731L20.3519 15.9731ZM16.0258 17.3989L15.0258 17.3985V17.3989H16.0258ZM16.0258 20.851V21.851H17.0258V20.851H16.0258ZM11.0531 20.851H10.0531V21.851H11.0531V20.851ZM11.0531 17.3989L10.0531 17.3988V17.3989H11.0531ZM20.3519 10.9995L20.3519 11.9995L20.352 11.9995L20.3519 10.9995ZM22.7914 8.56097L23.7914 8.56106L23.7914 8.56084L22.7914 8.56097ZM20.3519 6.12152L20.352 5.12152L20.3517 5.12152L20.3519 6.12152ZM15.9047 6.1225L15.9047 7.1225L15.9049 7.1225L15.9047 6.1225ZM10.931 1.14886V0.148865H9.93103V1.14886H10.931ZM20.8783 1.14886H19.8783C19.8783 1.12791 19.879 1.11128 19.8795 1.10177C19.8798 1.09689 19.88 1.0931 19.8801 1.09106C19.8803 1.08923 19.8804 1.08787 19.8803 1.08887C19.8803 1.08915 19.8801 1.09206 19.8799 1.09517C19.8796 1.09856 19.8793 1.10375 19.879 1.10999C19.8783 1.12222 19.8774 1.14164 19.8773 1.16534L20.8773 1.16937L21.8773 1.17341C21.8772 1.19369 21.8765 1.2097 21.876 1.21851C21.8758 1.22304 21.8755 1.22651 21.8754 1.2282C21.8753 1.2296 21.8752 1.2308 21.8753 1.22937C21.8754 1.22866 21.8756 1.22559 21.8758 1.22205C21.8761 1.21831 21.8764 1.21281 21.8768 1.20622C21.8775 1.19329 21.8783 1.17324 21.8783 1.14886H20.8783ZM20.8773 1.16937L20.8074 2.16693C24.1358 2.40019 26.7639 5.1735 26.764 8.56102L27.764 8.56097L28.764 8.56093C28.7638 4.11497 25.3152 0.477932 20.9472 0.171819L20.8773 1.16937ZM27.764 8.56097L26.764 8.56095C26.7639 12.1022 23.8931 14.9729 20.3519 14.9731L20.3519 15.9731L20.352 16.9731C24.9977 16.9729 28.7639 13.2068 28.764 8.561L27.764 8.56097ZM20.3519 15.9731V14.9731H17.4525V15.9731V16.9731H20.3519V15.9731ZM17.4525 15.9731V14.9731C16.1134 14.9731 15.0263 16.0586 15.0258 17.3985L16.0258 17.3989L17.0258 17.3992C17.0258 17.1644 17.2169 16.9731 17.4525 16.9731V15.9731ZM16.0258 17.3989H15.0258V20.851H16.0258H17.0258V17.3989H16.0258ZM16.0258 20.851V19.851H11.0531V20.851V21.851H16.0258V20.851ZM11.0531 20.851H12.0531V17.3989H11.0531H10.0531V20.851H11.0531ZM11.0531 17.3989L12.0531 17.3989C12.0533 14.417 14.4708 11.9995 17.4525 11.9995V10.9995V9.99945C13.366 9.99945 10.0534 13.3126 10.0531 17.3988L11.0531 17.3989ZM17.4525 10.9995V11.9995H20.3519V10.9995V9.99945H17.4525V10.9995ZM20.3519 10.9995L20.352 11.9995C22.2504 11.9992 23.7912 10.4606 23.7914 8.56106L22.7914 8.56097L21.7914 8.56089C21.7913 9.35488 21.1469 9.99936 20.3518 9.99945L20.3519 10.9995ZM22.7914 8.56097L23.7914 8.56084C23.7911 6.66198 22.251 5.12174 20.352 5.12152L20.3519 6.12152L20.3518 7.12152C21.1463 7.12161 21.7913 7.76657 21.7914 8.56111L22.7914 8.56097ZM20.3519 6.12152L20.3517 5.12152L15.9044 5.1225L15.9047 6.1225L15.9049 7.1225L20.3521 7.12152L20.3519 6.12152ZM15.9047 6.1225V5.1225C13.7102 5.1225 11.931 3.34331 11.931 1.14886H10.931H9.93103C9.93103 4.44788 12.6057 7.1225 15.9047 7.1225V6.1225ZM10.931 1.14886V2.14886H20.8783V1.14886V0.148865H10.931V1.14886Z" fill="#4E17D1" fill-opacity="0.6" mask="url(#path-3-outside-1_1_397)"/>
</svg>
